HIERARCHY
ROOT Hips
{
	OFFSET 0.000000 0.000000 0.000000
	CHANNELS 6 Xposition Yposition Zposition Zrotation Yrotation Xrotation 
	JOINT LHipJoint
	{
		OFFSET 0.000000 0.000000 0.000000
		CHANNELS 3 Zrotation Yrotation Xrotation
		JOINT LeftUpLeg
		{
			OFFSET 1.363060 -1.794630 0.839290
			CHANNELS 3 Zrotation Yrotation Xrotation
			JOINT LeftLeg
			{
				OFFSET 2.448110 -6.726130 0.000000
				CHANNELS 3 Zrotation Yrotation Xrotation
				JOINT LeftFoot
				{
					OFFSET 2.562200 -7.039590 0.000000
					CHANNELS 3 Zrotation Yrotation Xrotation
					JOINT LeftToeBase
					{
						OFFSET 0.157640 -0.433110 2.322550
						CHANNELS 3 Zrotation Yrotation Xrotation
						End Site
						{
							OFFSET 0.000000 0.000000 0.000000
						}
					}
				}
			}
		}
	}
	JOINT RHipJoint
	{
		OFFSET 0.000000 0.000000 0.000000
		CHANNELS 3 Zrotation Yrotation Xrotation
		JOINT RightUpLeg
		{
			OFFSET -1.305520 -1.794630 0.839290
			CHANNELS 3 Zrotation Yrotation Xrotation
			JOINT RightLeg
			{
				OFFSET -2.542530 -6.985550 0.000000
				CHANNELS 3 Zrotation Yrotation Xrotation
				JOINT RightFoot
				{
					OFFSET -2.568260 -7.056230 0.000000
					CHANNELS 3 Zrotation Yrotation Xrotation
					JOINT RightToeBase
					{
						OFFSET -0.164730 -0.452590 2.363150
						CHANNELS 3 Zrotation Yrotation Xrotation
						End Site
						{
							OFFSET 0.000000 0.000000 0.000000
						}
					}
				}
			}
		}
	}
	JOINT LowerBack
	{
		OFFSET 0.000000 0.000000 0.000000
		CHANNELS 3 Zrotation Yrotation Xrotation
		JOINT Spine
		{
			OFFSET 0.028270 2.035590 -0.193380
			CHANNELS 3 Zrotation Yrotation Xrotation
			JOINT Spine1
			{
				OFFSET 0.056720 2.048850 -0.042750
				CHANNELS 3 Zrotation Yrotation Xrotation
				JOINT Neck
				{
					OFFSET 0.000000 0.000000 0.000000
					CHANNELS 3 Zrotation Yrotation Xrotation
					JOINT Neck1
					{
						OFFSET -0.054170 1.746240 0.172020
						CHANNELS 3 Zrotation Yrotation Xrotation
						JOINT Head
						{
							OFFSET 0.104070 1.761360 -0.123970
							CHANNELS 3 Zrotation Yrotation Xrotation
							End Site
							{
								OFFSET 0.000000 0.000000 0.000000
							}
						}
					}
				}
				JOINT LeftShoulder
				{
					OFFSET 0.000000 0.000000 0.000000
					CHANNELS 3 Zrotation Yrotation Xrotation
					JOINT LeftArm
					{
						OFFSET 3.362410 1.200890 -0.311210
						CHANNELS 3 Zrotation Yrotation Xrotation
						JOINT LeftForeArm
						{
							OFFSET 4.983000 -0.000000 -0.000000
							CHANNELS 3 Zrotation Yrotation Xrotation
							JOINT LeftHand
							{
								OFFSET 3.483560 -0.000000 -0.000000
								CHANNELS 3 Zrotation Yrotation Xrotation
								JOINT LeftFingerBase
								{
									OFFSET 0.000000 0.000000 0.000000
									CHANNELS 3 Zrotation Yrotation Xrotation
									JOINT LeftHandIndex1
									{
										OFFSET 0.715260 -0.000000 -0.000000
										CHANNELS 3 Zrotation Yrotation Xrotation
										End Site
										{
											OFFSET 0.000000 0.000000 0.000000
										}
									}
								}
								JOINT LThumb
								{
									OFFSET 0.000000 0.000000 0.000000
									CHANNELS 3 Zrotation Yrotation Xrotation
									End Site
									{
										OFFSET 0.000000 0.000000 0.000000
									}
								}
							}
						}
					}
				}
				JOINT RightShoulder
				{
					OFFSET 0.000000 0.000000 0.000000
					CHANNELS 3 Zrotation Yrotation Xrotation
					JOINT RightArm
					{
						OFFSET -3.136600 1.374050 -0.404650
						CHANNELS 3 Zrotation Yrotation Xrotation
						JOINT RightForeArm
						{
							OFFSET -5.241900 -0.000000 -0.000000
							CHANNELS 3 Zrotation Yrotation Xrotation
							JOINT RightHand
							{
								OFFSET -3.444170 -0.000000 -0.000000
								CHANNELS 3 Zrotation Yrotation Xrotation
								JOINT RightFingerBase
								{
									OFFSET 0.000000 0.000000 0.000000
									CHANNELS 3 Zrotation Yrotation Xrotation
									JOINT RightHandIndex1
									{
										OFFSET -0.622530 -0.000000 -0.000000
										CHANNELS 3 Zrotation Yrotation Xrotation
										End Site
										{
											OFFSET 0.000000 0.000000 0.000000
										}
									}
								}
								JOINT RThumb
								{
									OFFSET 0.000000 0.000000 0.000000
									CHANNELS 3 Zrotation Yrotation Xrotation
									End Site
									{
										OFFSET 0.000000 0.000000 0.000000
									}
								}
							}
						}
					}
				}
			}
		}
	}
}
MOTION
Frames: 7
Frame Time: 0.008333
4.844700 17.110400 -26.014350 2.788060 -59.513730 7.497344 -0.025832 15.981292 -0.572108 -14.019445 -13.164229 -21.743101 2.048879 2.125484 33.253406 14.185714 5.563948 -4.637357 -1.711783 -0.701351 -8.634701 -8.534718 -21.229485 -2.517012 30.411364 10.272060 -6.930957 -3.185090 -1.761798 20.654936 -13.254053 1.613184 -11.131489 5.585809 -2.954718 -9.408042 1.145803 4.777861 10.720585 9.336223 5.226945 16.724157 -5.900021 -7.355764 -21.085642 -4.752093 -0.335335 -7.688149 -0.379622 0.613047 17.750503 -2.022004 5.140884 -4.932476 -6.877233 11.267678 -1.161899 -76.865647 -14.509873 44.489766 5.036003 -21.804590 11.299405 4.399464 -9.988446 4.858280 -2.211881 15.901851 -0.000000 0.000000 0.000000 0.000000 0.000000 0.000000 0.000000 4.763974 -19.084474 3.508539 68.339180 9.484736 45.504199 -9.139837 20.580244 16.197194 -7.530832 11.929534 10.817056 2.989785 -16.367417 -0.000000 0.000000 0.000000 0.000000 0.000000 0.000000 0.000000 
4.825950 17.109950 -26.044800 2.712619 -58.645727 7.490865 -0.172738 16.356838 -0.882167 -14.376817 -12.854234 -21.794903 2.206112 2.653665 33.411141 14.318655 6.500376 -4.486685 -1.740473 -0.572877 -8.642301 -8.465542 -21.445869 -2.474647 30.462239 10.040989 -6.798852 -3.181639 -1.963165 20.572159 -13.304963 1.376724 -11.264161 5.558442 -2.982234 -9.394044 1.379688 4.752668 10.974449 9.426530 5.206653 16.636151 -5.936391 -7.459012 -21.076815 -4.720086 -0.608550 -7.655046 -0.540624 0.363233 17.753896 -2.072560 5.104294 -4.913734 -6.872901 11.267669 -1.321201 -77.108288 -14.546361 44.541778 4.880338 -22.533895 11.378965 4.553929 -10.271433 5.002237 -2.213865 15.872173 -0.000000 0.000000 0.000000 0.000000 0.000000 0.000000 0.000000 4.698120 -18.992329 3.627897 68.283103 9.423324 45.575687 -9.228424 19.859164 16.269487 -7.387468 12.107472 10.747118 3.026256 -16.387428 -0.000000 0.000000 0.000000 0.000000 0.000000 0.000000 0.000000 
4.804215 17.111000 -26.064300 2.674028 -57.803995 7.437542 -0.282826 16.748539 -1.184004 -14.815735 -12.528709 -21.738947 2.369647 3.211692 33.496934 14.326236 7.409005 -4.404171 -1.797572 -0.398626 -8.602601 -8.369257 -21.632758 -2.350785 30.370316 9.827235 -6.750212 -3.116282 -2.165292 20.480428 -13.339303 1.177344 -11.414301 5.511875 -2.986212 -9.380909 1.678757 4.693359 11.092432 9.413783 5.118244 16.791200 -5.954986 -7.492645 -21.231806 -4.683723 -0.871776 -7.650116 -0.687137 0.114358 17.811076 -2.121052 5.042249 -4.859956 -6.923226 11.413161 -1.495726 -77.354714 -14.560954 44.689476 4.744655 -23.252653 11.526860 4.836364 -10.597545 5.277622 -2.167314 15.839793 -0.000000 0.000000 0.000000 0.000000 0.000000 0.000000 0.000000 4.720537 -19.036018 3.711097 68.100081 9.410044 45.718073 -9.244862 19.235996 16.244482 -7.274800 11.873531 10.679199 3.068605 -16.457848 0.000000 0.000000 0.000000 0.000000 0.000000 0.000000 0.000000 
4.785315 17.112650 -26.088150 2.614070 -56.991742 7.425356 -0.435998 17.109995 -1.488981 -15.164650 -12.167549 -21.725054 2.496357 3.788872 33.515806 14.313095 8.403136 -4.321104 -1.817569 -0.222489 -8.522184 -8.296679 -21.863949 -2.290540 30.381143 9.599588 -6.676703 -3.090339 -2.357256 20.431429 -13.372707 0.993828 -11.512736 5.495579 -3.008974 -9.382987 1.925528 4.687343 11.323774 9.496233 5.115685 16.753256 -5.998356 -7.589085 -21.326095 -4.655908 -1.143769 -7.625619 -0.854216 -0.130569 17.846251 -2.170752 5.013050 -4.822035 -6.972323 11.528870 -1.649161 -77.563904 -14.578952 44.906894 4.635226 -24.019583 11.708509 5.187169 -11.013651 5.620205 -2.100239 15.800180 -0.000000 0.000000 0.000000 0.000000 0.000000 0.000000 0.000000 4.706481 -19.072879 3.816685 68.003335 9.372733 45.832831 -9.320717 18.596763 16.274310 -7.353051 11.594310 10.782580 3.049317 -16.525447 -0.000000 0.000000 0.000000 0.000000 0.000000 0.000000 0.000000 
4.762320 17.113550 -26.103600 2.573913 -56.160114 7.382189 -0.571304 17.489527 -1.772823 -15.559138 -11.806392 -21.658794 2.624886 4.362646 33.470718 14.259644 9.356777 -4.258616 -1.887124 -0.054845 -8.546072 -8.215002 -22.071263 -2.189661 30.303382 9.345142 -6.615447 -3.014333 -2.564087 20.336223 -13.394366 0.827720 -11.645715 5.465117 -3.020284 -9.379111 2.225775 4.658043 11.464463 9.550370 5.068455 16.813792 -6.089256 -7.681784 -21.469869 -4.609727 -1.421476 -7.627999 -1.020193 -0.388058 17.940597 -2.222390 4.962741 -4.747500 -7.036277 11.710730 -1.774706 -77.736855 -14.573717 45.198740 4.514687 -24.793267 11.919636 5.533654 -11.401764 5.980311 -2.060896 15.772169 -0.000000 0.000000 0.000000 0.000000 0.000000 0.000000 0.000000 4.651804 -19.192115 3.867871 67.798023 9.305144 46.092542 -9.232580 18.125910 16.283942 -7.007646 11.762815 10.534934 3.187086 -16.560611 -0.000000 0.000000 0.000000 0.000000 0.000000 0.000000 0.000000 
4.740120 17.112650 -26.118600 2.540690 -55.360080 7.332725 -0.697191 17.857965 -2.048675 -15.944095 -11.445439 -21.570003 2.767396 4.941580 33.398303 14.148284 10.317556 -4.271048 -1.927723 0.147059 -8.462421 -8.124684 -22.269106 -2.087446 30.216251 9.114453 -6.574409 -2.946845 -2.769133 20.267793 -13.420668 0.668120 -11.814255 5.426004 -3.027276 -9.370475 2.511392 4.632420 11.591235 9.550383 5.022492 16.862598 -6.127441 -7.745821 -21.617917 -4.576216 -1.635260 -7.606995 -1.123514 -0.598188 18.019805 -2.262367 4.894041 -4.696580 -7.093210 11.858164 -1.900977 -77.910491 -14.523300 45.540960 4.287260 -25.598527 12.103652 5.422171 -11.811189 5.979245 -2.277052 15.761517 0.000000 0.000000 0.000000 0.000000 0.000000 0.000000 0.000000 4.658053 -19.324033 3.942704 67.692890 9.278830 46.090758 -9.301333 17.574050 16.267179 -7.067950 11.567763 10.592452 3.131941 -16.597234 0.000000 0.000000 0.000000 0.000000 0.000000 0.000000 0.000000 
4.718115 17.111900 -26.133150 2.492365 -54.569356 7.291296 -0.824430 18.199522 -2.298981 -16.288884 -11.091322 -21.480585 2.885490 5.488699 33.263171 14.125443 11.228098 -4.249132 -1.950828 0.309565 -8.437442 -8.048396 -22.466503 -1.995365 30.164934 8.891377 -6.507024 -2.903729 -2.964021 20.207120 -13.461455 0.503432 -11.968322 5.388474 -3.039450 -9.355917 2.764514 4.618113 11.709115 9.596742 4.994620 16.943460 -6.158859 -7.810956 -21.764679 -4.528546 -1.853336 -7.603170 -1.228533 -0.808314 18.098209 -2.301892 4.824594 -4.641611 -7.134872 12.039884 -2.007425 -78.122015 -14.488273 45.792204 4.179785 -26.410662 12.361965 5.746796 -12.176012 6.343857 -2.276146 15.739427 0.000000 0.000000 0.000000 0.000000 0.000000 0.000000 0.000000 4.640304 -19.472951 4.006542 67.519940 9.232125 46.234373 -9.347751 17.144028 16.367421 -7.086391 11.671470 10.667974 3.127579 -16.610755 0.000000 0.000000 0.000000 0.000000 0.000000 0.000000 0.000000 
